<svg width="16" height="16" viewBox="0 0 16 16" fill="none" xmlns="http://www.w3.org/2000/svg">
<g clip-path="url(#clip0_639_9799)">
<path fill-rule="evenodd" clip-rule="evenodd" d="M8 1.11628C4.19823 1.11628 1.11628 4.19823 1.11628 8C1.11628 11.8018 4.19823 14.8837 8 14.8837C11.8018 14.8837 14.8837 11.8018 14.8837 8C14.8837 4.19823 11.8018 1.11628 8 1.11628ZM0 8C0 3.58172 3.58172 0 8 0C12.4183 0 16 3.58172 16 8C16 12.4183 12.4183 16 8 16C3.58172 16 0 12.4183 0 8Z" fill="black"/>
<path fill-rule="evenodd" clip-rule="evenodd" d="M2.23256 6.88372C2.23256 5.95897 2.98222 5.2093 3.90698 5.2093H4.65116C4.95941 5.2093 5.2093 5.45919 5.2093 5.76744C5.2093 6.07569 4.95941 6.32558 4.65116 6.32558H3.90698C3.59872 6.32558 3.34884 6.57547 3.34884 6.88372C3.34884 7.19197 3.59872 7.44186 3.90698 7.44186C4.83173 7.44186 5.5814 8.19152 5.5814 9.11628C5.5814 10.041 4.83173 10.7907 3.90698 10.7907H3.16279C2.85454 10.7907 2.60465 10.5408 2.60465 10.2326C2.60465 9.92431 2.85454 9.67442 3.16279 9.67442H3.90698C4.21523 9.67442 4.46512 9.42453 4.46512 9.11628C4.46512 8.80803 4.21523 8.55814 3.90698 8.55814C2.98222 8.55814 2.23256 7.80848 2.23256 6.88372Z" fill="black"/>
<path fill-rule="evenodd" clip-rule="evenodd" d="M10.4186 6.88372C10.4186 5.95897 11.1683 5.2093 12.093 5.2093H12.8372C13.1455 5.2093 13.3953 5.45919 13.3953 5.76744C13.3953 6.07569 13.1455 6.32558 12.8372 6.32558H12.093C11.7848 6.32558 11.5349 6.57547 11.5349 6.88372C11.5349 7.19197 11.7848 7.44186 12.093 7.44186C13.0178 7.44186 13.7674 8.19152 13.7674 9.11628C13.7674 10.041 13.0178 10.7907 12.093 10.7907H11.3488C11.0406 10.7907 10.7907 10.5408 10.7907 10.2326C10.7907 9.92431 11.0406 9.67442 11.3488 9.67442H12.093C12.4013 9.67442 12.6512 9.42453 12.6512 9.11628C12.6512 8.80803 12.4013 8.55814 12.093 8.55814C11.1683 8.55814 10.4186 7.80848 10.4186 6.88372Z" fill="black"/>
<path fill-rule="evenodd" clip-rule="evenodd" d="M6.32558 6.88372C6.32558 5.95896 7.07524 5.2093 8 5.2093C8.92476 5.2093 9.67442 5.95896 9.67442 6.88372V9.11628C9.67442 10.041 8.92476 10.7907 8 10.7907C7.07524 10.7907 6.32558 10.041 6.32558 9.11628V6.88372ZM8 6.32558C7.69175 6.32558 7.44186 6.57547 7.44186 6.88372V9.11628C7.44186 9.42453 7.69175 9.67442 8 9.67442C8.30825 9.67442 8.55814 9.42453 8.55814 9.11628V6.88372C8.55814 6.57547 8.30825 6.32558 8 6.32558Z" fill="black"/>
</g>
<defs>
<clipPath id="clip0_639_9799">
<rect width="16" height="16" fill="white"/>
</clipPath>
</defs>
</svg>
